<svg xmlns="http://www.w3.org/2000/svg" width="920" height="520" viewBox="0 0 920 520">
<rect width="100%" height="100%" fill="white"/>
<text x="460.0" y="30.0" font-family="Arial, sans-serif" font-size="20" text-anchor="middle" fill="#222">Standardised Feature Means by Stress Label</text>
<line x1="485.0" y1="45" x2="485.0" y2="485" stroke="#999"/>
<text x="208.0" y="94.0" font-family="Arial, sans-serif" font-size="12" text-anchor="end" fill="#222">sleep_score</text>
<circle cx="478.3" cy="90.0" r="6" fill="#4C78A8"/>
<circle cx="491.4" cy="90.0" r="6" fill="#F58518"/>
<circle cx="483.5" cy="90.0" r="6" fill="#54A24B"/>
<text x="208.0" y="164.0" font-family="Arial, sans-serif" font-size="12" text-anchor="end" fill="#222">deep_sleep_minutes</text>
<circle cx="485.1" cy="160.0" r="6" fill="#4C78A8"/>
<circle cx="488.0" cy="160.0" r="6" fill="#F58518"/>
<circle cx="482.2" cy="160.0" r="6" fill="#54A24B"/>
<text x="208.0" y="234.0" font-family="Arial, sans-serif" font-size="12" text-anchor="end" fill="#222">total_steps</text>
<circle cx="481.9" cy="230.0" r="6" fill="#4C78A8"/>
<circle cx="478.9" cy="230.0" r="6" fill="#F58518"/>
<circle cx="492.7" cy="230.0" r="6" fill="#54A24B"/>
<text x="208.0" y="304.0" font-family="Arial, sans-serif" font-size="12" text-anchor="end" fill="#222">sedentary_minutes</text>
<circle cx="481.2" cy="300.0" r="6" fill="#4C78A8"/>
<circle cx="483.4" cy="300.0" r="6" fill="#F58518"/>
<circle cx="489.1" cy="300.0" r="6" fill="#54A24B"/>
<text x="208.0" y="374.0" font-family="Arial, sans-serif" font-size="12" text-anchor="end" fill="#222">avg_rmssd</text>
<circle cx="483.1" cy="370.0" r="6" fill="#4C78A8"/>
<circle cx="486.0" cy="370.0" r="6" fill="#F58518"/>
<circle cx="485.4" cy="370.0" r="6" fill="#54A24B"/>
<text x="208.0" y="444.0" font-family="Arial, sans-serif" font-size="12" text-anchor="end" fill="#222">avg_oxygen</text>
<circle cx="473.8" cy="440.0" r="6" fill="#4C78A8"/>
<circle cx="484.6" cy="440.0" r="6" fill="#F58518"/>
<circle cx="492.9" cy="440.0" r="6" fill="#54A24B"/>
<circle cx="780" cy="75" r="6" fill="#4C78A8"/>
<text x="794.0" y="79.0" font-family="Arial, sans-serif" font-size="12" text-anchor="start" fill="#222">Low</text>
<circle cx="780" cy="99" r="6" fill="#F58518"/>
<text x="794.0" y="103.0" font-family="Arial, sans-serif" font-size="12" text-anchor="start" fill="#222">Medium</text>
<circle cx="780" cy="123" r="6" fill="#54A24B"/>
<text x="794.0" y="127.0" font-family="Arial, sans-serif" font-size="12" text-anchor="start" fill="#222">High</text>
<text x="360.0" y="508.0" font-family="Arial, sans-serif" font-size="11" text-anchor="middle" fill="#222">-1 SD</text>
<text x="485.0" y="508.0" font-family="Arial, sans-serif" font-size="11" text-anchor="middle" fill="#222">Mean</text>
<text x="610.0" y="508.0" font-family="Arial, sans-serif" font-size="11" text-anchor="middle" fill="#222">+1 SD</text>
</svg>