<svg xmlns="http://www.w3.org/2000/svg" width="1000" height="720" viewBox="0 0 1000 720">
<rect width="100%" height="100%" fill="white"/>
<text x="500.0" y="30.0" font-family="Arial, sans-serif" font-size="20" text-anchor="middle" fill="#222">Feature Distributions</text>
<text x="257.5" y="60.0" font-family="Arial, sans-serif" font-size="13" text-anchor="middle" fill="#222">sleep_score</text>
<line x1="70.0" y1="157.5" x2="445.0" y2="157.5" stroke="#333"/>
<line x1="70.0" y1="75.0" x2="70.0" y2="157.5" stroke="#333"/>
<rect x="70.0" y="150.9" width="30.2" height="6.6" fill="#72B7B2"/>
<rect x="101.2" y="146.2" width="30.2" height="11.3" fill="#72B7B2"/>
<rect x="132.5" y="138.0" width="30.2" height="19.5" fill="#72B7B2"/>
<rect x="163.8" y="126.0" width="30.2" height="31.5" fill="#72B7B2"/>
<rect x="195.0" y="115.4" width="30.2" height="42.1" fill="#72B7B2"/>
<rect x="226.2" y="95.6" width="30.2" height="61.9" fill="#72B7B2"/>
<rect x="257.5" y="87.9" width="30.2" height="69.6" fill="#72B7B2"/>
<rect x="288.8" y="80.0" width="30.2" height="77.5" fill="#72B7B2"/>
<rect x="320.0" y="93.2" width="30.2" height="64.3" fill="#72B7B2"/>
<rect x="351.2" y="115.4" width="30.2" height="42.1" fill="#72B7B2"/>
<rect x="382.5" y="133.3" width="30.2" height="24.2" fill="#72B7B2"/>
<rect x="413.8" y="146.2" width="30.2" height="11.3" fill="#72B7B2"/>
<text x="687.5" y="60.0" font-family="Arial, sans-serif" font-size="13" text-anchor="middle" fill="#222">deep_sleep_minutes</text>
<line x1="500.0" y1="157.5" x2="875.0" y2="157.5" stroke="#333"/>
<line x1="500.0" y1="75.0" x2="500.0" y2="157.5" stroke="#333"/>
<rect x="500.0" y="151.2" width="30.2" height="6.3" fill="#72B7B2"/>
<rect x="531.2" y="148.3" width="30.2" height="9.2" fill="#72B7B2"/>
<rect x="562.5" y="130.0" width="30.2" height="27.5" fill="#72B7B2"/>
<rect x="593.8" y="108.5" width="30.2" height="49.0" fill="#72B7B2"/>
<rect x="625.0" y="102.1" width="30.2" height="55.4" fill="#72B7B2"/>
<rect x="656.2" y="80.0" width="30.2" height="77.5" fill="#72B7B2"/>
<rect x="687.5" y="80.0" width="30.2" height="77.5" fill="#72B7B2"/>
<rect x="718.8" y="102.1" width="30.2" height="55.4" fill="#72B7B2"/>
<rect x="750.0" y="115.4" width="30.2" height="42.1" fill="#72B7B2"/>
<rect x="781.2" y="135.7" width="30.2" height="21.8" fill="#72B7B2"/>
<rect x="812.5" y="145.2" width="30.2" height="12.3" fill="#72B7B2"/>
<rect x="843.8" y="150.5" width="30.2" height="7.0" fill="#72B7B2"/>
<text x="257.5" y="212.5" font-family="Arial, sans-serif" font-size="13" text-anchor="middle" fill="#222">total_steps</text>
<line x1="70.0" y1="310.0" x2="445.0" y2="310.0" stroke="#333"/>
<line x1="70.0" y1="227.5" x2="70.0" y2="310.0" stroke="#333"/>
<rect x="70.0" y="292.8" width="30.2" height="17.2" fill="#72B7B2"/>
<rect x="101.2" y="257.0" width="30.2" height="53.0" fill="#72B7B2"/>
<rect x="132.5" y="243.1" width="30.2" height="66.9" fill="#72B7B2"/>
<rect x="163.8" y="232.5" width="30.2" height="77.5" fill="#72B7B2"/>
<rect x="195.0" y="237.3" width="30.2" height="72.7" fill="#72B7B2"/>
<rect x="226.2" y="242.4" width="30.2" height="67.6" fill="#72B7B2"/>
<rect x="257.5" y="257.7" width="30.2" height="52.3" fill="#72B7B2"/>
<rect x="288.8" y="272.3" width="30.2" height="37.7" fill="#72B7B2"/>
<rect x="320.0" y="282.9" width="30.2" height="27.1" fill="#72B7B2"/>
<rect x="351.2" y="290.3" width="30.2" height="19.7" fill="#72B7B2"/>
<rect x="382.5" y="300.5" width="30.2" height="9.5" fill="#72B7B2"/>
<rect x="413.8" y="301.6" width="30.2" height="8.4" fill="#72B7B2"/>
<text x="687.5" y="212.5" font-family="Arial, sans-serif" font-size="13" text-anchor="middle" fill="#222">sedentary_minutes</text>
<line x1="500.0" y1="310.0" x2="875.0" y2="310.0" stroke="#333"/>
<line x1="500.0" y1="227.5" x2="500.0" y2="310.0" stroke="#333"/>
<rect x="500.0" y="309.2" width="30.2" height="0.8" fill="#72B7B2"/>
<rect x="531.2" y="305.6" width="30.2" height="4.4" fill="#72B7B2"/>
<rect x="562.5" y="298.8" width="30.2" height="11.2" fill="#72B7B2"/>
<rect x="593.8" y="275.3" width="30.2" height="34.7" fill="#72B7B2"/>
<rect x="625.0" y="250.8" width="30.2" height="59.2" fill="#72B7B2"/>
<rect x="656.2" y="232.5" width="30.2" height="77.5" fill="#72B7B2"/>
<rect x="687.5" y="237.7" width="30.2" height="72.3" fill="#72B7B2"/>
<rect x="718.8" y="260.2" width="30.2" height="49.8" fill="#72B7B2"/>
<rect x="750.0" y="277.6" width="30.2" height="32.4" fill="#72B7B2"/>
<rect x="781.2" y="294.9" width="30.2" height="15.1" fill="#72B7B2"/>
<rect x="812.5" y="304.8" width="30.2" height="5.2" fill="#72B7B2"/>
<rect x="843.8" y="309.0" width="30.2" height="1.0" fill="#72B7B2"/>
<text x="257.5" y="365.0" font-family="Arial, sans-serif" font-size="13" text-anchor="middle" fill="#222">avg_rmssd</text>
<line x1="70.0" y1="462.5" x2="445.0" y2="462.5" stroke="#333"/>
<line x1="70.0" y1="380.0" x2="70.0" y2="462.5" stroke="#333"/>
<rect x="70.0" y="439.1" width="30.2" height="23.4" fill="#72B7B2"/>
<rect x="101.2" y="386.4" width="30.2" height="76.1" fill="#72B7B2"/>
<rect x="132.5" y="393.8" width="30.2" height="68.7" fill="#72B7B2"/>
<rect x="163.8" y="390.7" width="30.2" height="71.8" fill="#72B7B2"/>
<rect x="195.0" y="385.0" width="30.2" height="77.5" fill="#72B7B2"/>
<rect x="226.2" y="413.3" width="30.2" height="49.2" fill="#72B7B2"/>
<rect x="257.5" y="431.7" width="30.2" height="30.8" fill="#72B7B2"/>
<rect x="288.8" y="440.2" width="30.2" height="22.3" fill="#72B7B2"/>
<rect x="320.0" y="442.0" width="30.2" height="20.5" fill="#72B7B2"/>
<rect x="351.2" y="432.1" width="30.2" height="30.4" fill="#72B7B2"/>
<rect x="382.5" y="446.6" width="30.2" height="15.9" fill="#72B7B2"/>
<rect x="413.8" y="455.8" width="30.2" height="6.7" fill="#72B7B2"/>
<text x="687.5" y="365.0" font-family="Arial, sans-serif" font-size="13" text-anchor="middle" fill="#222">avg_low_frequency</text>
<line x1="500.0" y1="462.5" x2="875.0" y2="462.5" stroke="#333"/>
<line x1="500.0" y1="380.0" x2="500.0" y2="462.5" stroke="#333"/>
<rect x="500.0" y="429.7" width="30.2" height="32.8" fill="#72B7B2"/>
<rect x="531.2" y="385.0" width="30.2" height="77.5" fill="#72B7B2"/>
<rect x="562.5" y="425.4" width="30.2" height="37.1" fill="#72B7B2"/>
<rect x="593.8" y="439.9" width="30.2" height="22.6" fill="#72B7B2"/>
<rect x="625.0" y="449.3" width="30.2" height="13.2" fill="#72B7B2"/>
<rect x="656.2" y="453.3" width="30.2" height="9.2" fill="#72B7B2"/>
<rect x="687.5" y="459.4" width="30.2" height="3.1" fill="#72B7B2"/>
<rect x="718.8" y="461.4" width="30.2" height="1.1" fill="#72B7B2"/>
<rect x="750.0" y="462.2" width="30.2" height="0.3" fill="#72B7B2"/>
<rect x="781.2" y="462.4" width="30.2" height="0.1" fill="#72B7B2"/>
<rect x="812.5" y="462.5" width="30.2" height="0.0" fill="#72B7B2"/>
<rect x="843.8" y="462.4" width="30.2" height="0.1" fill="#72B7B2"/>
<text x="257.5" y="517.5" font-family="Arial, sans-serif" font-size="13" text-anchor="middle" fill="#222">avg_oxygen</text>
<line x1="70.0" y1="615.0" x2="445.0" y2="615.0" stroke="#333"/>
<line x1="70.0" y1="532.5" x2="70.0" y2="615.0" stroke="#333"/>
<rect x="70.0" y="609.9" width="30.2" height="5.1" fill="#72B7B2"/>
<rect x="101.2" y="599.6" width="30.2" height="15.4" fill="#72B7B2"/>
<rect x="132.5" y="592.2" width="30.2" height="22.8" fill="#72B7B2"/>
<rect x="163.8" y="585.7" width="30.2" height="29.3" fill="#72B7B2"/>
<rect x="195.0" y="569.7" width="30.2" height="45.3" fill="#72B7B2"/>
<rect x="226.2" y="547.1" width="30.2" height="67.9" fill="#72B7B2"/>
<rect x="257.5" y="537.5" width="30.2" height="77.5" fill="#72B7B2"/>
<rect x="288.8" y="537.8" width="30.2" height="77.2" fill="#72B7B2"/>
<rect x="320.0" y="551.6" width="30.2" height="63.4" fill="#72B7B2"/>
<rect x="351.2" y="581.9" width="30.2" height="33.1" fill="#72B7B2"/>
<rect x="382.5" y="605.7" width="30.2" height="9.3" fill="#72B7B2"/>
<rect x="413.8" y="613.1" width="30.2" height="1.9" fill="#72B7B2"/>
<text x="687.5" y="517.5" font-family="Arial, sans-serif" font-size="13" text-anchor="middle" fill="#222">std_oxygen</text>
<line x1="500.0" y1="615.0" x2="875.0" y2="615.0" stroke="#333"/>
<line x1="500.0" y1="532.5" x2="500.0" y2="615.0" stroke="#333"/>
<rect x="500.0" y="614.5" width="30.2" height="0.5" fill="#72B7B2"/>
<rect x="531.2" y="613.9" width="30.2" height="1.1" fill="#72B7B2"/>
<rect x="562.5" y="607.1" width="30.2" height="7.9" fill="#72B7B2"/>
<rect x="593.8" y="592.5" width="30.2" height="22.5" fill="#72B7B2"/>
<rect x="625.0" y="568.9" width="30.2" height="46.1" fill="#72B7B2"/>
<rect x="656.2" y="553.2" width="30.2" height="61.8" fill="#72B7B2"/>
<rect x="687.5" y="537.5" width="30.2" height="77.5" fill="#72B7B2"/>
<rect x="718.8" y="540.8" width="30.2" height="74.2" fill="#72B7B2"/>
<rect x="750.0" y="563.2" width="30.2" height="51.8" fill="#72B7B2"/>
<rect x="781.2" y="588.4" width="30.2" height="26.6" fill="#72B7B2"/>
<rect x="812.5" y="608.0" width="30.2" height="7.0" fill="#72B7B2"/>
<rect x="843.8" y="614.2" width="30.2" height="0.8" fill="#72B7B2"/>
</svg>