<svg xmlns="http://www.w3.org/2000/svg" width="860" height="420" viewBox="0 0 860 420">
<rect width="100%" height="100%" fill="white"/>
<text x="430.0" y="30.0" font-family="Arial, sans-serif" font-size="20" text-anchor="middle" fill="#222">Raw Modality Coverage Against Target Days</text>
<text x="180.0" y="77.0" font-family="Arial, sans-serif" font-size="12" text-anchor="end" fill="#222">stress.csv</text>
<rect x="190" y="63.0" width="630" height="18" fill="#eee"/>
<rect x="190" y="63.0" width="296.2" height="18" fill="#4C78A8"/>
<text x="494.2" y="77.0" font-family="Arial, sans-serif" font-size="11" text-anchor="start" fill="#222">47.0%</text>
<text x="180.0" y="121.3" font-family="Arial, sans-serif" font-size="12" text-anchor="end" fill="#222">sleep.csv</text>
<rect x="190" y="107.28571428571428" width="630" height="18" fill="#eee"/>
<rect x="190" y="107.28571428571428" width="303.3" height="18" fill="#4C78A8"/>
<text x="501.3" y="121.3" font-family="Arial, sans-serif" font-size="11" text-anchor="start" fill="#222">48.1%</text>
<text x="180.0" y="165.6" font-family="Arial, sans-serif" font-size="12" text-anchor="end" fill="#222">hrv.csv</text>
<rect x="190" y="151.57142857142856" width="630" height="18" fill="#eee"/>
<rect x="190" y="151.57142857142856" width="330.8" height="18" fill="#4C78A8"/>
<text x="528.8" y="165.6" font-family="Arial, sans-serif" font-size="11" text-anchor="start" fill="#222">52.5%</text>
<text x="180.0" y="209.9" font-family="Arial, sans-serif" font-size="12" text-anchor="end" fill="#222">oxygen.csv</text>
<rect x="190" y="195.85714285714286" width="630" height="18" fill="#eee"/>
<rect x="190" y="195.85714285714286" width="405.9" height="18" fill="#4C78A8"/>
<text x="603.9" y="209.9" font-family="Arial, sans-serif" font-size="11" text-anchor="start" fill="#222">64.4%</text>
<text x="180.0" y="254.1" font-family="Arial, sans-serif" font-size="12" text-anchor="end" fill="#222">steps.csv</text>
<rect x="190" y="240.14285714285714" width="630" height="18" fill="#eee"/>
<rect x="190" y="240.14285714285714" width="451.0" height="18" fill="#4C78A8"/>
<text x="649.0" y="254.1" font-family="Arial, sans-serif" font-size="11" text-anchor="start" fill="#222">71.6%</text>
<text x="180.0" y="298.4" font-family="Arial, sans-serif" font-size="12" text-anchor="end" fill="#222">activity_level.csv</text>
<rect x="190" y="284.42857142857144" width="630" height="18" fill="#eee"/>
<rect x="190" y="284.42857142857144" width="456.1" height="18" fill="#4C78A8"/>
<text x="654.1" y="298.4" font-family="Arial, sans-serif" font-size="11" text-anchor="start" fill="#222">72.4%</text>
<text x="180.0" y="342.7" font-family="Arial, sans-serif" font-size="12" text-anchor="end" fill="#222">daily_questions.csv</text>
<rect x="190" y="328.7142857142857" width="630" height="18" fill="#eee"/>
<rect x="190" y="328.7142857142857" width="630.0" height="18" fill="#4C78A8"/>
<text x="828.0" y="342.7" font-family="Arial, sans-serif" font-size="11" text-anchor="start" fill="#222">100.0%</text>
</svg>