<svg xmlns="http://www.w3.org/2000/svg" width="880" height="470" viewBox="0 0 880 470">
<rect width="100%" height="100%" fill="white"/>
<text x="440.0" y="30.0" font-family="Arial, sans-serif" font-size="20" text-anchor="middle" fill="#222">Continuous Stress Score Distribution</text>
<line x1="70" y1="385" x2="845" y2="385" stroke="#333"/>
<line x1="70" y1="55" x2="70" y2="385" stroke="#333"/>
<text x="440.0" y="445.0" font-family="Arial, sans-serif" font-size="13" text-anchor="middle" fill="#222">Stress score</text>
<text x="24.0" y="220.0" font-family="Arial, sans-serif" font-size="13" text-anchor="middle" fill="#222">Count</text>
<rect x="70.0" y="232.1" width="37.8" height="152.9" fill="#4C78A8"/>
<rect x="108.8" y="176.3" width="37.8" height="208.7" fill="#4C78A8"/>
<rect x="147.5" y="74.4" width="37.8" height="310.6" fill="#4C78A8"/>
<rect x="186.2" y="69.6" width="37.8" height="315.4" fill="#4C78A8"/>
<rect x="225.0" y="74.4" width="37.8" height="310.6" fill="#4C78A8"/>
<rect x="263.8" y="86.5" width="37.8" height="298.5" fill="#4C78A8"/>
<rect x="302.5" y="55.0" width="37.8" height="330.0" fill="#4C78A8"/>
<rect x="341.2" y="190.9" width="37.8" height="194.1" fill="#4C78A8"/>
<rect x="380.0" y="239.4" width="37.8" height="145.6" fill="#4C78A8"/>
<rect x="418.8" y="188.5" width="37.8" height="196.5" fill="#4C78A8"/>
<rect x="457.5" y="166.6" width="37.8" height="218.4" fill="#4C78A8"/>
<rect x="496.2" y="292.8" width="37.8" height="92.2" fill="#4C78A8"/>
<rect x="535.0" y="292.8" width="37.8" height="92.2" fill="#4C78A8"/>
<rect x="573.8" y="295.2" width="37.8" height="89.8" fill="#4C78A8"/>
<rect x="612.5" y="290.4" width="37.8" height="94.6" fill="#4C78A8"/>
<rect x="651.2" y="309.8" width="37.8" height="75.2" fill="#4C78A8"/>
<rect x="690.0" y="319.5" width="37.8" height="65.5" fill="#4C78A8"/>
<rect x="728.8" y="341.3" width="37.8" height="43.7" fill="#4C78A8"/>
<rect x="767.5" y="370.4" width="37.8" height="14.6" fill="#4C78A8"/>
<rect x="806.2" y="370.4" width="37.8" height="14.6" fill="#4C78A8"/>
<line x1="70.0" y1="385" x2="70.0" y2="390" stroke="#333"/>
<text x="70.0" y="407.0" font-family="Arial, sans-serif" font-size="10" text-anchor="middle" fill="#222">0</text>
<line x1="147.5" y1="385" x2="147.5" y2="390" stroke="#333"/>
<text x="147.5" y="407.0" font-family="Arial, sans-serif" font-size="10" text-anchor="middle" fill="#222">10</text>
<line x1="225.0" y1="385" x2="225.0" y2="390" stroke="#333"/>
<text x="225.0" y="407.0" font-family="Arial, sans-serif" font-size="10" text-anchor="middle" fill="#222">20</text>
<line x1="302.5" y1="385" x2="302.5" y2="390" stroke="#333"/>
<text x="302.5" y="407.0" font-family="Arial, sans-serif" font-size="10" text-anchor="middle" fill="#222">30</text>
<line x1="380.0" y1="385" x2="380.0" y2="390" stroke="#333"/>
<text x="380.0" y="407.0" font-family="Arial, sans-serif" font-size="10" text-anchor="middle" fill="#222">40</text>
<line x1="457.5" y1="385" x2="457.5" y2="390" stroke="#333"/>
<text x="457.5" y="407.0" font-family="Arial, sans-serif" font-size="10" text-anchor="middle" fill="#222">50</text>
<line x1="535.0" y1="385" x2="535.0" y2="390" stroke="#333"/>
<text x="535.0" y="407.0" font-family="Arial, sans-serif" font-size="10" text-anchor="middle" fill="#222">60</text>
<line x1="612.5" y1="385" x2="612.5" y2="390" stroke="#333"/>
<text x="612.5" y="407.0" font-family="Arial, sans-serif" font-size="10" text-anchor="middle" fill="#222">70</text>
<line x1="690.0" y1="385" x2="690.0" y2="390" stroke="#333"/>
<text x="690.0" y="407.0" font-family="Arial, sans-serif" font-size="10" text-anchor="middle" fill="#222">80</text>
<line x1="767.5" y1="385" x2="767.5" y2="390" stroke="#333"/>
<text x="767.5" y="407.0" font-family="Arial, sans-serif" font-size="10" text-anchor="middle" fill="#222">90</text>
<line x1="845.0" y1="385" x2="845.0" y2="390" stroke="#333"/>
<text x="845.0" y="407.0" font-family="Arial, sans-serif" font-size="10" text-anchor="middle" fill="#222">100</text>
</svg>