<svg xmlns="http://www.w3.org/2000/svg" width="960" height="560" viewBox="0 0 960 560">
<rect width="100%" height="100%" fill="white"/>
<text x="480.0" y="30.0" font-family="Arial, sans-serif" font-size="20" text-anchor="middle" fill="#222">Student-Day Observations per Student</text>
<line x1="65" y1="465" x2="930" y2="465" stroke="#333"/>
<line x1="65" y1="55" x2="65" y2="465" stroke="#333"/>
<text x="22.0" y="260.0" font-family="Arial, sans-serif" font-size="13" text-anchor="middle" fill="#222">Days</text>
<text x="480.0" y="538.0" font-family="Arial, sans-serif" font-size="13" text-anchor="middle" fill="#222">Student ID</text>
<rect x="65.0" y="448.3" width="25.0" height="16.7" fill="#D9534F"/>
<text x="78.5" y="483.0" font-family="Arial, sans-serif" font-size="9" text-anchor="middle" fill="#222">25</text>
<rect x="92.0" y="439.9" width="25.0" height="25.1" fill="#D9534F"/>
<rect x="119.1" y="435.7" width="25.0" height="29.3" fill="#D9534F"/>
<text x="132.6" y="483.0" font-family="Arial, sans-serif" font-size="9" text-anchor="middle" fill="#222">31</text>
<rect x="146.1" y="435.7" width="25.0" height="29.3" fill="#D9534F"/>
<rect x="173.1" y="414.8" width="25.0" height="50.2" fill="#D9534F"/>
<text x="186.6" y="483.0" font-family="Arial, sans-serif" font-size="9" text-anchor="middle" fill="#222">17</text>
<rect x="200.2" y="410.6" width="25.0" height="54.4" fill="#D9534F"/>
<rect x="227.2" y="402.2" width="25.0" height="62.8" fill="#4C78A8"/>
<text x="240.7" y="483.0" font-family="Arial, sans-serif" font-size="9" text-anchor="middle" fill="#222">21</text>
<rect x="254.2" y="385.5" width="25.0" height="79.5" fill="#4C78A8"/>
<rect x="281.2" y="381.3" width="25.0" height="83.7" fill="#4C78A8"/>
<text x="294.8" y="483.0" font-family="Arial, sans-serif" font-size="9" text-anchor="middle" fill="#222">23</text>
<rect x="308.3" y="356.2" width="25.0" height="108.8" fill="#4C78A8"/>
<rect x="335.3" y="343.7" width="25.0" height="121.3" fill="#4C78A8"/>
<text x="348.8" y="483.0" font-family="Arial, sans-serif" font-size="9" text-anchor="middle" fill="#222">1</text>
<rect x="362.3" y="339.5" width="25.0" height="125.5" fill="#4C78A8"/>
<rect x="389.4" y="335.3" width="25.0" height="129.7" fill="#4C78A8"/>
<text x="402.9" y="483.0" font-family="Arial, sans-serif" font-size="9" text-anchor="middle" fill="#222">6</text>
<rect x="416.4" y="331.1" width="25.0" height="133.9" fill="#4C78A8"/>
<rect x="443.4" y="306.0" width="25.0" height="159.0" fill="#4C78A8"/>
<text x="457.0" y="483.0" font-family="Arial, sans-serif" font-size="9" text-anchor="middle" fill="#222">29</text>
<rect x="470.5" y="297.7" width="25.0" height="167.3" fill="#4C78A8"/>
<rect x="497.5" y="293.5" width="25.0" height="171.5" fill="#4C78A8"/>
<text x="511.0" y="483.0" font-family="Arial, sans-serif" font-size="9" text-anchor="middle" fill="#222">20</text>
<rect x="524.5" y="289.3" width="25.0" height="175.7" fill="#4C78A8"/>
<rect x="551.6" y="285.1" width="25.0" height="179.9" fill="#4C78A8"/>
<text x="565.1" y="483.0" font-family="Arial, sans-serif" font-size="9" text-anchor="middle" fill="#222">22</text>
<rect x="578.6" y="276.7" width="25.0" height="188.3" fill="#4C78A8"/>
<rect x="605.6" y="272.6" width="25.0" height="192.4" fill="#4C78A8"/>
<text x="619.1" y="483.0" font-family="Arial, sans-serif" font-size="9" text-anchor="middle" fill="#222">34</text>
<rect x="632.7" y="214.0" width="25.0" height="251.0" fill="#4C78A8"/>
<rect x="659.7" y="205.6" width="25.0" height="259.4" fill="#4C78A8"/>
<text x="673.2" y="483.0" font-family="Arial, sans-serif" font-size="9" text-anchor="middle" fill="#222">28</text>
<rect x="686.7" y="197.2" width="25.0" height="267.8" fill="#4C78A8"/>
<rect x="713.8" y="180.5" width="25.0" height="284.5" fill="#4C78A8"/>
<text x="727.3" y="483.0" font-family="Arial, sans-serif" font-size="9" text-anchor="middle" fill="#222">26</text>
<rect x="740.8" y="159.6" width="25.0" height="305.4" fill="#4C78A8"/>
<rect x="767.8" y="155.4" width="25.0" height="309.6" fill="#4C78A8"/>
<text x="781.3" y="483.0" font-family="Arial, sans-serif" font-size="9" text-anchor="middle" fill="#222">32</text>
<rect x="794.8" y="130.3" width="25.0" height="334.7" fill="#4C78A8"/>
<rect x="821.9" y="96.8" width="25.0" height="368.2" fill="#4C78A8"/>
<text x="835.4" y="483.0" font-family="Arial, sans-serif" font-size="9" text-anchor="middle" fill="#222">24</text>
<rect x="848.9" y="92.7" width="25.0" height="372.3" fill="#4C78A8"/>
<rect x="875.9" y="80.1" width="25.0" height="384.9" fill="#4C78A8"/>
<text x="889.5" y="483.0" font-family="Arial, sans-serif" font-size="9" text-anchor="middle" fill="#222">27</text>
<rect x="903.0" y="55.0" width="25.0" height="410.0" fill="#4C78A8"/>
<text x="815.0" y="75.0" font-family="Arial, sans-serif" font-size="12" text-anchor="start" fill="#222">Red: fewer than 14 days</text>
</svg>