<svg xmlns="http://www.w3.org/2000/svg" width="820" height="500" viewBox="0 0 820 500">
<rect width="100%" height="100%" fill="#ffffff"/>
<text x="410.0" y="32.0" text-anchor="middle" font-family="Arial, sans-serif" font-size="20" font-weight="700" fill="#111827">RQ2 HRV+SpO2 RF Feature Importance</text>
<line x1="92" y1="396" x2="786" y2="396" stroke="#9ca3af"/>
<line x1="92" y1="58" x2="92" y2="396" stroke="#9ca3af"/>
<text x="26.0" y="227.0" text-anchor="middle" font-family="Arial, sans-serif" font-size="13" font-weight="400" fill="#111827">Importance</text>
<line x1="92" y1="396.0" x2="786" y2="396.0" stroke="#e5e7eb"/>
<text x="80.0" y="400.0" text-anchor="end" font-family="Arial, sans-serif" font-size="11" font-weight="400" fill="#4b5563">0.00</text>
<line x1="92" y1="328.4" x2="786" y2="328.4" stroke="#e5e7eb"/>
<text x="80.0" y="332.4" text-anchor="end" font-family="Arial, sans-serif" font-size="11" font-weight="400" fill="#4b5563">0.05</text>
<line x1="92" y1="260.8" x2="786" y2="260.8" stroke="#e5e7eb"/>
<text x="80.0" y="264.8" text-anchor="end" font-family="Arial, sans-serif" font-size="11" font-weight="400" fill="#4b5563">0.10</text>
<line x1="92" y1="193.2" x2="786" y2="193.2" stroke="#e5e7eb"/>
<text x="80.0" y="197.2" text-anchor="end" font-family="Arial, sans-serif" font-size="11" font-weight="400" fill="#4b5563">0.16</text>
<line x1="92" y1="125.6" x2="786" y2="125.6" stroke="#e5e7eb"/>
<text x="80.0" y="129.6" text-anchor="end" font-family="Arial, sans-serif" font-size="11" font-weight="400" fill="#4b5563">0.21</text>
<line x1="92" y1="58.0" x2="786" y2="58.0" stroke="#e5e7eb"/>
<text x="80.0" y="62.0" text-anchor="end" font-family="Arial, sans-serif" font-size="11" font-weight="400" fill="#4b5563">0.26</text>
<rect x="92.0" y="114.3" width="121.2" height="281.7" fill="#059669"/>
<text x="152.6" y="420.0" text-anchor="middle" font-family="Arial, sans-serif" font-size="11" font-weight="400" fill="#374151">std oxygen</text>
<text x="152.6" y="106.3" text-anchor="middle" font-family="Arial, sans-serif" font-size="12" font-weight="700" fill="#111827">0.218</text>
<rect x="235.2" y="133.8" width="121.2" height="262.2" fill="#059669"/>
<text x="295.8" y="420.0" text-anchor="middle" font-family="Arial, sans-serif" font-size="11" font-weight="400" fill="#374151">avg oxygen</text>
<text x="295.8" y="125.8" text-anchor="middle" font-family="Arial, sans-serif" font-size="12" font-weight="700" fill="#111827">0.202</text>
<rect x="378.4" y="140.4" width="121.2" height="255.6" fill="#059669"/>
<text x="439.0" y="420.0" text-anchor="middle" font-family="Arial, sans-serif" font-size="11" font-weight="400" fill="#374151">avg low</text>
<text x="439.0" y="435.0" text-anchor="middle" font-family="Arial, sans-serif" font-size="11" font-weight="400" fill="#374151">frequency</text>
<text x="439.0" y="132.4" text-anchor="middle" font-family="Arial, sans-serif" font-size="12" font-weight="700" fill="#111827">0.197</text>
<rect x="521.6" y="145.0" width="121.2" height="251.0" fill="#059669"/>
<text x="582.2" y="420.0" text-anchor="middle" font-family="Arial, sans-serif" font-size="11" font-weight="400" fill="#374151">avg rmssd</text>
<text x="582.2" y="137.0" text-anchor="middle" font-family="Arial, sans-serif" font-size="12" font-weight="700" fill="#111827">0.194</text>
<rect x="664.8" y="151.7" width="121.2" height="244.3" fill="#059669"/>
<text x="725.4" y="420.0" text-anchor="middle" font-family="Arial, sans-serif" font-size="11" font-weight="400" fill="#374151">avg high</text>
<text x="725.4" y="435.0" text-anchor="middle" font-family="Arial, sans-serif" font-size="11" font-weight="400" fill="#374151">frequency</text>
<text x="725.4" y="143.7" text-anchor="middle" font-family="Arial, sans-serif" font-size="12" font-weight="700" fill="#111827">0.189</text>
</svg>