<svg xmlns="http://www.w3.org/2000/svg" width="880" height="520" viewBox="0 0 880 520">
<rect width="100%" height="100%" fill="#ffffff"/>
<text x="440.0" y="32.0" text-anchor="middle" font-family="Arial, sans-serif" font-size="20" font-weight="700" fill="#111827">Strict Dataset Stress Label Distribution</text>
<line x1="86" y1="424" x2="846" y2="424" stroke="#9ca3af"/>
<line x1="86" y1="58" x2="86" y2="424" stroke="#9ca3af"/>
<text x="24.0" y="241.0" text-anchor="middle" font-family="Arial, sans-serif" font-size="13" font-weight="400" fill="#111827">Student-day count</text>
<line x1="86" y1="424.0" x2="846" y2="424.0" stroke="#e5e7eb"/>
<text x="74.0" y="428.0" text-anchor="end" font-family="Arial, sans-serif" font-size="11" font-weight="400" fill="#4b5563">0.00</text>
<line x1="86" y1="350.8" x2="846" y2="350.8" stroke="#e5e7eb"/>
<text x="74.0" y="354.8" text-anchor="end" font-family="Arial, sans-serif" font-size="11" font-weight="400" fill="#4b5563">255.35</text>
<line x1="86" y1="277.6" x2="846" y2="277.6" stroke="#e5e7eb"/>
<text x="74.0" y="281.6" text-anchor="end" font-family="Arial, sans-serif" font-size="11" font-weight="400" fill="#4b5563">510.70</text>
<line x1="86" y1="204.4" x2="846" y2="204.4" stroke="#e5e7eb"/>
<text x="74.0" y="208.4" text-anchor="end" font-family="Arial, sans-serif" font-size="11" font-weight="400" fill="#4b5563">766.06</text>
<line x1="86" y1="131.2" x2="846" y2="131.2" stroke="#e5e7eb"/>
<text x="74.0" y="135.2" text-anchor="end" font-family="Arial, sans-serif" font-size="11" font-weight="400" fill="#4b5563">1021.41</text>
<line x1="86" y1="58.0" x2="846" y2="58.0" stroke="#e5e7eb"/>
<text x="74.0" y="62.0" text-anchor="end" font-family="Arial, sans-serif" font-size="11" font-weight="400" fill="#4b5563">1276.76</text>
<rect x="86.0" y="113.8" width="238.7" height="310.2" fill="#2563eb"/>
<text x="205.3" y="448.0" text-anchor="middle" font-family="Arial, sans-serif" font-size="11" font-weight="400" fill="#374151">Low</text>
<text x="205.3" y="105.8" text-anchor="middle" font-family="Arial, sans-serif" font-size="12" font-weight="700" fill="#111827">1082</text>
<rect x="346.7" y="141.9" width="238.7" height="282.1" fill="#2563eb"/>
<text x="466.0" y="448.0" text-anchor="middle" font-family="Arial, sans-serif" font-size="11" font-weight="400" fill="#374151">Medium</text>
<text x="466.0" y="133.9" text-anchor="middle" font-family="Arial, sans-serif" font-size="12" font-weight="700" fill="#111827">984</text>
<rect x="607.3" y="122.4" width="238.7" height="301.6" fill="#2563eb"/>
<text x="726.7" y="448.0" text-anchor="middle" font-family="Arial, sans-serif" font-size="11" font-weight="400" fill="#374151">High</text>
<text x="726.7" y="114.4" text-anchor="middle" font-family="Arial, sans-serif" font-size="12" font-weight="700" fill="#111827">1052</text>
</svg>