<svg xmlns="http://www.w3.org/2000/svg" width="940" height="540" viewBox="0 0 940 540">
<rect width="100%" height="100%" fill="#ffffff"/>
<text x="470.0" y="32.0" text-anchor="middle" font-family="Arial, sans-serif" font-size="20" font-weight="700" fill="#111827">Strict Dataset Weekly Mean Stress Trend</text>
<line x1="78" y1="454" x2="906" y2="454" stroke="#9ca3af"/>
<line x1="78" y1="58" x2="78" y2="454" stroke="#9ca3af"/>
<text x="470.0" y="516.0" text-anchor="middle" font-family="Arial, sans-serif" font-size="13" font-weight="400" fill="#111827">Semester week</text>
<text x="24.0" y="256.0" text-anchor="middle" font-family="Arial, sans-serif" font-size="13" font-weight="400" fill="#111827">Stress score</text>
<line x1="78" y1="454.0" x2="906" y2="454.0" stroke="#e5e7eb"/>
<text x="66.0" y="458.0" text-anchor="end" font-family="Arial, sans-serif" font-size="11" font-weight="400" fill="#4b5563">0</text>
<line x1="78" y1="374.8" x2="906" y2="374.8" stroke="#e5e7eb"/>
<text x="66.0" y="378.8" text-anchor="end" font-family="Arial, sans-serif" font-size="11" font-weight="400" fill="#4b5563">20</text>
<line x1="78" y1="295.6" x2="906" y2="295.6" stroke="#e5e7eb"/>
<text x="66.0" y="299.6" text-anchor="end" font-family="Arial, sans-serif" font-size="11" font-weight="400" fill="#4b5563">40</text>
<line x1="78" y1="216.4" x2="906" y2="216.4" stroke="#e5e7eb"/>
<text x="66.0" y="220.4" text-anchor="end" font-family="Arial, sans-serif" font-size="11" font-weight="400" fill="#4b5563">60</text>
<line x1="78" y1="137.2" x2="906" y2="137.2" stroke="#e5e7eb"/>
<text x="66.0" y="141.2" text-anchor="end" font-family="Arial, sans-serif" font-size="11" font-weight="400" fill="#4b5563">80</text>
<line x1="78" y1="58.0" x2="906" y2="58.0" stroke="#e5e7eb"/>
<text x="66.0" y="62.0" text-anchor="end" font-family="Arial, sans-serif" font-size="11" font-weight="400" fill="#4b5563">100</text>
<text x="78.0" y="478.0" text-anchor="middle" font-family="Arial, sans-serif" font-size="10" font-weight="400" fill="#4b5563">1</text>
<text x="160.8" y="478.0" text-anchor="middle" font-family="Arial, sans-serif" font-size="10" font-weight="400" fill="#4b5563">3</text>
<text x="243.6" y="478.0" text-anchor="middle" font-family="Arial, sans-serif" font-size="10" font-weight="400" fill="#4b5563">5</text>
<text x="326.4" y="478.0" text-anchor="middle" font-family="Arial, sans-serif" font-size="10" font-weight="400" fill="#4b5563">7</text>
<text x="409.2" y="478.0" text-anchor="middle" font-family="Arial, sans-serif" font-size="10" font-weight="400" fill="#4b5563">9</text>
<text x="492.0" y="478.0" text-anchor="middle" font-family="Arial, sans-serif" font-size="10" font-weight="400" fill="#4b5563">11</text>
<text x="574.8" y="478.0" text-anchor="middle" font-family="Arial, sans-serif" font-size="10" font-weight="400" fill="#4b5563">13</text>
<text x="657.6" y="478.0" text-anchor="middle" font-family="Arial, sans-serif" font-size="10" font-weight="400" fill="#4b5563">15</text>
<text x="740.4" y="478.0" text-anchor="middle" font-family="Arial, sans-serif" font-size="10" font-weight="400" fill="#4b5563">17</text>
<text x="823.2" y="478.0" text-anchor="middle" font-family="Arial, sans-serif" font-size="10" font-weight="400" fill="#4b5563">19</text>
<text x="906.0" y="478.0" text-anchor="middle" font-family="Arial, sans-serif" font-size="10" font-weight="400" fill="#4b5563">21</text>
<polygon points="78.0,246.8 119.4,251.9 160.8,252.6 202.2,213.6 243.6,223.1 285.0,185.5 326.4,193.1 367.8,192.7 409.2,207.4 450.6,231.7 492.0,178.4 533.4,230.5 574.8,254.7 616.2,222.6 657.6,244.0 699.0,247.1 740.4,221.2 781.8,245.1 823.2,229.2 864.6,234.0 906.0,348.9 906.0,451.2 864.6,435.9 823.2,441.3 781.8,437.4 740.4,423.2 699.0,424.6 657.6,434.3 616.2,431.8 574.8,432.5 533.4,433.9 492.0,408.7 450.6,430.3 409.2,417.5 367.8,398.9 326.4,408.9 285.0,401.0 243.6,424.8 202.2,416.5 160.8,420.8 119.4,421.2 78.0,448.3" fill="#93c5fd" opacity="0.35"/>
<polyline points="78.0,347.5 119.4,336.5 160.8,336.7 202.2,315.0 243.6,323.9 285.0,293.3 326.4,301.0 367.8,295.8 409.2,312.5 450.6,331.0 492.0,293.5 533.4,332.2 574.8,343.6 616.2,327.2 657.6,339.2 699.0,335.9 740.4,322.2 781.8,341.2 823.2,335.3 864.6,334.9 906.0,400.0" fill="none" stroke="#2563eb" stroke-width="3"/>
<circle cx="78.0" cy="347.5" r="4" fill="#2563eb"/>
<circle cx="119.4" cy="336.5" r="4" fill="#2563eb"/>
<circle cx="160.8" cy="336.7" r="4" fill="#2563eb"/>
<circle cx="202.2" cy="315.0" r="4" fill="#2563eb"/>
<circle cx="243.6" cy="323.9" r="4" fill="#2563eb"/>
<circle cx="285.0" cy="293.3" r="4" fill="#2563eb"/>
<circle cx="326.4" cy="301.0" r="4" fill="#2563eb"/>
<circle cx="367.8" cy="295.8" r="4" fill="#2563eb"/>
<circle cx="409.2" cy="312.5" r="4" fill="#2563eb"/>
<circle cx="450.6" cy="331.0" r="4" fill="#2563eb"/>
<circle cx="492.0" cy="293.5" r="4" fill="#2563eb"/>
<circle cx="533.4" cy="332.2" r="4" fill="#2563eb"/>
<circle cx="574.8" cy="343.6" r="4" fill="#2563eb"/>
<circle cx="616.2" cy="327.2" r="4" fill="#2563eb"/>
<circle cx="657.6" cy="339.2" r="4" fill="#2563eb"/>
<circle cx="699.0" cy="335.9" r="4" fill="#2563eb"/>
<circle cx="740.4" cy="322.2" r="4" fill="#2563eb"/>
<circle cx="781.8" cy="341.2" r="4" fill="#2563eb"/>
<circle cx="823.2" cy="335.3" r="4" fill="#2563eb"/>
<circle cx="864.6" cy="334.9" r="4" fill="#2563eb"/>
<circle cx="906.0" cy="400.0" r="4" fill="#2563eb"/>
</svg>