<svg xmlns="http://www.w3.org/2000/svg" width="960" height="560" viewBox="0 0 960 560">
  <rect width="100%" height="100%" fill="#ffffff" />
  <text x="480.0" y="28" text-anchor="middle" font-size="20" font-family="Arial, sans-serif" font-weight="700" fill="#111827">Strict RQ3: Weekly Mean Stress Trend</text>
  <text x="480.0" y="542" text-anchor="middle" font-size="14" font-family="Arial, sans-serif" fill="#374151">Semester week</text>
  <text transform="translate(20 280.0) rotate(-90)" text-anchor="middle" font-size="14" font-family="Arial, sans-serif" fill="#374151">Self-reported stress</text>
  <line x1="72" y1="488.0" x2="928" y2="488.0" stroke="#e5e7eb" /><line x1="72" y1="401.6" x2="928" y2="401.6" stroke="#e5e7eb" /><line x1="72" y1="315.2" x2="928" y2="315.2" stroke="#e5e7eb" /><line x1="72" y1="228.8" x2="928" y2="228.8" stroke="#e5e7eb" /><line x1="72" y1="142.4" x2="928" y2="142.4" stroke="#e5e7eb" /><line x1="72" y1="56.0" x2="928" y2="56.0" stroke="#e5e7eb" />
  <line x1="72" y1="56" x2="72" y2="488" stroke="#9ca3af" />
  <line x1="72" y1="488" x2="928" y2="488" stroke="#9ca3af" />
  <text x="60" y="492.0" text-anchor="end" font-size="12" fill="#4b5563">0</text><text x="60" y="405.6" text-anchor="end" font-size="12" fill="#4b5563">20</text><text x="60" y="319.2" text-anchor="end" font-size="12" fill="#4b5563">40</text><text x="60" y="232.8" text-anchor="end" font-size="12" fill="#4b5563">60</text><text x="60" y="146.4" text-anchor="end" font-size="12" fill="#4b5563">80</text><text x="60" y="60.0" text-anchor="end" font-size="12" fill="#4b5563">100</text>
  <text x="72.0" y="516" text-anchor="middle" font-size="11" fill="#4b5563">1</text><text x="114.8" y="516" text-anchor="middle" font-size="11" fill="#4b5563">2</text><text x="157.6" y="516" text-anchor="middle" font-size="11" fill="#4b5563">3</text><text x="200.4" y="516" text-anchor="middle" font-size="11" fill="#4b5563">4</text><text x="243.2" y="516" text-anchor="middle" font-size="11" fill="#4b5563">5</text><text x="286.0" y="516" text-anchor="middle" font-size="11" fill="#4b5563">6</text><text x="328.8" y="516" text-anchor="middle" font-size="11" fill="#4b5563">7</text><text x="371.6" y="516" text-anchor="middle" font-size="11" fill="#4b5563">8</text><text x="414.4" y="516" text-anchor="middle" font-size="11" fill="#4b5563">9</text><text x="457.2" y="516" text-anchor="middle" font-size="11" fill="#4b5563">10</text><text x="500.0" y="516" text-anchor="middle" font-size="11" fill="#4b5563">11</text><text x="542.8" y="516" text-anchor="middle" font-size="11" fill="#4b5563">12</text><text x="585.6" y="516" text-anchor="middle" font-size="11" fill="#4b5563">13</text><text x="628.4" y="516" text-anchor="middle" font-size="11" fill="#4b5563">14</text><text x="671.2" y="516" text-anchor="middle" font-size="11" fill="#4b5563">15</text><text x="714.0" y="516" text-anchor="middle" font-size="11" fill="#4b5563">16</text><text x="756.8" y="516" text-anchor="middle" font-size="11" fill="#4b5563">17</text><text x="799.6" y="516" text-anchor="middle" font-size="11" fill="#4b5563">18</text><text x="842.4" y="516" text-anchor="middle" font-size="11" fill="#4b5563">19</text><text x="885.2" y="516" text-anchor="middle" font-size="11" fill="#4b5563">20</text><text x="928.0" y="516" text-anchor="middle" font-size="11" fill="#4b5563">21</text>
  <polygon points="72.0,261.9 114.8,267.5 157.6,268.3 200.4,225.7 243.2,236.1 286.0,195.1 328.8,203.4 371.6,202.9 414.4,219.0 457.2,245.5 500.0,187.3 542.8,244.2 585.6,270.6 628.4,235.6 671.2,259.0 714.0,262.3 756.8,234.0 799.6,260.1 842.4,242.8 885.2,248.0 928.0,373.3 928.0,484.9 885.2,468.3 842.4,474.2 799.6,469.8 756.8,454.4 714.0,456.0 671.2,466.6 628.4,463.8 585.6,464.5 542.8,466.1 500.0,438.5 457.2,462.2 414.4,448.2 371.6,427.9 328.8,438.9 286.0,430.2 243.2,456.1 200.4,447.1 157.6,451.8 114.8,452.2 72.0,481.8" fill="#93c5fd" opacity="0.35" />
  <polyline points="72.0,371.9 114.8,359.8 157.6,360.0 200.4,336.4 243.2,346.1 286.0,312.7 328.8,321.1 371.6,315.4 414.4,333.6 457.2,353.8 500.0,312.9 542.8,355.2 585.6,367.6 628.4,349.7 671.2,362.8 714.0,359.1 756.8,344.2 799.6,365.0 842.4,358.5 885.2,358.1 928.0,429.1" fill="none" stroke="#2563eb" stroke-width="3" />
  <circle cx="72.0" cy="371.9" r="4" fill="#2563eb" /><circle cx="114.8" cy="359.8" r="4" fill="#2563eb" /><circle cx="157.6" cy="360.0" r="4" fill="#2563eb" /><circle cx="200.4" cy="336.4" r="4" fill="#2563eb" /><circle cx="243.2" cy="346.1" r="4" fill="#2563eb" /><circle cx="286.0" cy="312.7" r="4" fill="#2563eb" /><circle cx="328.8" cy="321.1" r="4" fill="#2563eb" /><circle cx="371.6" cy="315.4" r="4" fill="#2563eb" /><circle cx="414.4" cy="333.6" r="4" fill="#2563eb" /><circle cx="457.2" cy="353.8" r="4" fill="#2563eb" /><circle cx="500.0" cy="312.9" r="4" fill="#2563eb" /><circle cx="542.8" cy="355.2" r="4" fill="#2563eb" /><circle cx="585.6" cy="367.6" r="4" fill="#2563eb" /><circle cx="628.4" cy="349.7" r="4" fill="#2563eb" /><circle cx="671.2" cy="362.8" r="4" fill="#2563eb" /><circle cx="714.0" cy="359.1" r="4" fill="#2563eb" /><circle cx="756.8" cy="344.2" r="4" fill="#2563eb" /><circle cx="799.6" cy="365.0" r="4" fill="#2563eb" /><circle cx="842.4" cy="358.5" r="4" fill="#2563eb" /><circle cx="885.2" cy="358.1" r="4" fill="#2563eb" /><circle cx="928.0" cy="429.1" r="4" fill="#2563eb" />
  <rect x="770" y="50" width="150" height="48" fill="#ffffff" stroke="#e5e7eb" />
  <line x1="784" y1="68" x2="818" y2="68" stroke="#2563eb" stroke-width="3" />
  <text x="828" y="72" font-size="12" font-family="Arial, sans-serif" fill="#374151">Mean stress</text>
  <rect x="784" y="80" width="34" height="10" fill="#93c5fd" opacity="0.35" />
  <text x="828" y="90" font-size="12" font-family="Arial, sans-serif" fill="#374151">+/- 1 SD</text>
</svg>
